<svg xmlns="http://www.w3.org/2000/svg" width="1em" height="1em" viewBox="0 0 14 14">
	<path d="M0 0h14v14H0z" fill="none" />
	<path fill="#cd201f" fill-rule="evenodd" d="M3.894 1.721c1.001-.09 2.041-.169 3.106-.169s2.105.078 3.105.17c1.668.15 3.056 1.459 3.252 3.136c.082.692.143 1.408.143 2.142s-.062 1.45-.143 2.142c-.196 1.677-1.584 2.985-3.252 3.137c-1 .09-2.04.169-3.105.169s-2.105-.078-3.106-.17C2.227 12.129.84 10.82.642 9.143A18 18 0 0 1 .5 7c0-.734.062-1.45.142-2.142c.197-1.677 1.585-2.985 3.252-3.137M9.634 7c0 .744-1.949 1.905-3.348 2.643c-.645.34-1.395-.137-1.395-.866V5.223c0-.73.75-1.206 1.395-.866c1.399.738 3.348 1.9 3.348 2.643" clip-rule="evenodd" />
</svg>
